<svg aria-hidden="true" style="position:absolute;width:0;height:0;overflow:hidden" xmlns="http://www.w3.org/2000/svg"><defs>
    
    <symbol id="projeco-logo" viewBox="0 0 143 32"><path fill="var(--color-current)" d="m7.14 18.31-1.385 2.606v8.756h-4.48V1.163h4.48v12.422L11.62 1.163h4.48L9.869 13.87 16.1 29.672h-4.602L7.14 18.309zm15.284 4.806c0 1.032.21 1.758.631 2.179s.984.631 1.69.631 1.269-.21 1.69-.631c.421-.421.631-1.147.631-2.179V7.721c0-1.032-.21-1.758-.631-2.179s-.984-.631-1.69-.631-1.269.21-1.69.631c-.421.421-.631 1.147-.631 2.179v15.395zm-4.48-15.11c0-2.308.584-4.08 1.751-5.315S22.546.838 24.745.838s3.883.618 5.05 1.853 1.751 3.007 1.751 5.315v14.825c0 2.308-.584 4.079-1.751 5.315s-2.851 1.853-5.05 1.853-3.883-.618-5.05-1.853-1.751-3.007-1.751-5.315V8.006zm20.945 1.018v20.649h-4.032V1.164h5.62l4.602 17.065V1.164h3.991v28.509h-4.602l-5.58-20.649zm13.289-1.018c0-2.308.55-4.08 1.65-5.315S56.577.838 58.776.838s3.849.618 4.948 1.853c1.1 1.235 1.65 3.007 1.65 5.315v.896h-4.236V7.721c0-1.032-.197-1.758-.59-2.179s-.944-.631-1.65-.631-1.256.21-1.649.631c-.394.421-.591 1.147-.591 2.179 0 .977.217 1.839.652 2.586s.977 1.453 1.629 2.118c.652.665 1.351 1.33 2.097 1.996s1.446 1.392 2.098 2.179c.652.787 1.195 1.683 1.629 2.688s.652 2.186.652 3.543c0 2.308-.563 4.079-1.69 5.315s-2.79 1.853-4.989 1.853-3.862-.618-4.989-1.853-1.69-3.007-1.69-5.315V21.08h4.236v2.036c0 1.032.21 1.751.631 2.158s.984.611 1.69.611 1.269-.204 1.69-.611c.421-.407.631-1.127.631-2.158 0-.978-.217-1.84-.652-2.586s-.978-1.453-1.629-2.118c-.652-.665-1.351-1.331-2.098-1.996s-1.446-1.391-2.097-2.179c-.652-.787-1.195-1.683-1.629-2.688s-.652-2.186-.652-3.543zm14.959-6.842h13.847v4.073H76.3v24.436h-4.48V5.237h-4.684V1.164zm25.629 28.509c-.054-.19-.109-.367-.163-.53s-.102-.366-.143-.611c-.041-.244-.068-.557-.081-.937s-.02-.855-.02-1.426v-4.48c0-1.33-.231-2.267-.692-2.81s-1.208-.814-2.24-.814h-1.548v11.607h-4.48V1.163h6.761c2.335 0 4.025.543 5.071 1.629s1.568 2.729 1.568 4.928v2.24c0 2.932-.978 4.86-2.932 5.783 1.14.462 1.921 1.215 2.342 2.26s.631 2.315.631 3.808v4.399c0 .706.027 1.324.082 1.853s.19 1.066.407 1.609h-4.561zM87.879 5.236v8.756h1.751c.842 0 1.5-.217 1.975-.652s.713-1.222.713-2.362v-2.81c0-1.032-.183-1.778-.55-2.24s-.944-.692-1.731-.692h-2.159zm16.628-4.072v21.993c0 1.032.21 1.751.631 2.159s.984.611 1.69.611 1.269-.204 1.69-.611.631-1.127.631-2.159V1.164h4.236v21.708c0 2.308-.563 4.08-1.69 5.315s-2.79 1.853-4.989 1.853-3.862-.618-4.989-1.853c-1.127-1.235-1.69-3.007-1.69-5.315V1.164h4.48zm24.634 0h13.847v4.073h-4.684v24.436h-4.48V5.237h-4.684V1.164z"/><path fill="var(--color-brand)" d="M115.514 15.979 127.15 1.434v29.091l-11.636-14.546z"/></symbol>
    
    <symbol id="google" viewBox="0 0 32 32"><path fill="var(--color-current)" d="M16.319 13.713V19.2h9.075c-.369 2.356-2.744 6.9-9.075 6.9C10.856 26.1 6.4 21.575 6.4 16s4.456-10.1 9.919-10.1c3.106 0 5.188 1.325 6.375 2.469l4.344-4.181C24.25 1.576 20.638 0 16.319 0c-8.844 0-16 7.156-16 16s7.156 16 16 16c9.231 0 15.363-6.494 15.363-15.631 0-1.05-.113-1.85-.25-2.65l-15.113-.006z"/></symbol>
    
    <symbol id="facebook" viewBox="0 0 32 32"><path fill="var(--color-current)" d="M29 0H3C1.35 0 0 1.35 0 3v26c0 1.65 1.35 3 3 3h13V18h-4v-4h4v-2c0-3.306 2.694-6 6-6h4v4h-4c-1.1 0-2 .9-2 2v2h6l-1 4h-5v14h9c1.65 0 3-1.35 3-3V3c0-1.65-1.35-3-3-3z"/></symbol>
    
    <symbol id="twitter" viewBox="0 0 32 32"><path fill="var(--color-current)" d="M32 7.075c-1.175.525-2.444.875-3.769 1.031 1.356-.813 2.394-2.1 2.887-3.631-1.269.75-2.675 1.3-4.169 1.594C25.749 4.794 24.043 4 22.155 4c-3.625 0-6.563 2.938-6.563 6.563 0 .512.056 1.012.169 1.494-5.456-.275-10.294-2.888-13.531-6.862-.563.969-.887 2.1-.887 3.3 0 2.275 1.156 4.287 2.919 5.463-1.075-.031-2.087-.331-2.975-.819v.081c0 3.181 2.263 5.838 5.269 6.437-.55.15-1.131.231-1.731.231-.425 0-.831-.044-1.237-.119.838 2.606 3.263 4.506 6.131 4.563-2.25 1.762-5.075 2.813-8.156 2.813-.531 0-1.05-.031-1.569-.094 2.913 1.869 6.362 2.95 10.069 2.95 12.075 0 18.681-10.006 18.681-18.681 0-.287-.006-.569-.019-.85 1.281-.919 2.394-2.075 3.275-3.394z"/></symbol>
    
    
    </defs></svg>